<?xml version="1.0"?>
<svg xmlns="http://www.w3.org/2000/svg" id="Layer_1" data-name="Layer 1" viewBox="0 0 512 512" width="512px" height="512px"><title>Group</title><path d="M404.792,418.941h-7.164a7,7,0,0,0,0,14h7.164a7,7,0,0,0,0-14Z" fill="#FFFFFF"/><path d="M473.9,365.059l-12.153-4.119,14.416-1.768a7,7,0,0,0,6-8.361L464.882,267a24.063,24.063,0,0,0,9.468-25.35,19.615,19.615,0,0,0-11.25-13.445l.063-17.548v-.049l.039-10.736a82.016,82.016,0,1,0-164.031-.484l.075,25.672c0,.056,0,.111,0,.167l.068,3.023a19.609,19.609,0,0,0-11.148,13.4,24.051,24.051,0,0,0,11.47,26.621l-21.864,82.154a7,7,0,0,0,5.093,8.6,140.42,140.42,0,0,0,15.855,2.613l-10.1,3.424a43.031,43.031,0,0,0-6.556,2.857l-63.654-20.638V316.772a98.51,98.51,0,0,0,46.1-65.93l3.925-13.5a31.737,31.737,0,0,0,20.855-37.666,25.33,25.33,0,0,0-16.3-18.042V137.218a105.26,105.26,0,1,0-210.519,0v44.4a25.329,25.329,0,0,0-16.343,18.055,31.734,31.734,0,0,0,20.855,37.668l3.924,13.5a98.51,98.51,0,0,0,46.1,65.93v30.506L49.488,369.167c-19.013,6.166-33.432,21.014-38.571,39.725-.2.725-.385,1.455-.559,2.2A55.006,55.006,0,0,0,9,423.707v49.335a7,7,0,0,0,7,7H319.408a7,7,0,0,0,7-7V456.915H496a7,7,0,0,0,7-7V405.647A42.836,42.836,0,0,0,473.9,365.059Zm-124.614-5.78,24.9,24.834v15.771l-37.4-36.369Zm25.443-16.832h13.058a66.667,66.667,0,0,0,16.577-2.112v8.014l-23.1,23.044-23.106-23.044v-8.014A66.665,66.665,0,0,0,374.729,342.447Zm13.458,41.81,25.044-24.978,12.5,4.236-37.544,36.51ZM435.6,352.078,439.5,347.3l10.8,9.759Zm24.486-5.039-16.671-15.067a7,7,0,0,0-10.12.771l-11.847,14.539-3.085-1.046v-11.2A75.028,75.028,0,0,0,439.919,318.4a82.038,82.038,0,0,0,15.876-26.15L466.922,346.2ZM400.633,202.49a103.12,103.12,0,0,0,7.793-7.222c10.48,11.151,20.814,16.412,40.717,20.988l-.024,6.384A84.032,84.032,0,0,1,400.633,202.49Zm-19.445-71.137A68.014,68.014,0,0,1,449.2,199.805l-.008,2.077c-16.621-4.1-23.732-8.526-31.6-17.3a132.727,132.727,0,0,0,9.767-14.926,7,7,0,1,0-12.189-6.886c-25.983,45.99-63.464,48.085-81.477,49.09l-.27.016c-5.248.293-10.16,3.9-12.819,9.422a4.325,4.325,0,0,1-2.053,2,4.454,4.454,0,0,1-5.05-.871l-.267-.266-.066-22.795A68.093,68.093,0,0,1,381.188,131.353ZM301.766,244.981a5.851,5.851,0,0,1,5.313-4.459,6.993,6.993,0,0,0,5.317-3.295,18.42,18.42,0,0,0,20.824-9.853,3.991,3.991,0,0,1,1.2-1.533l.062,0c11.644-.651,32.918-1.845,54.5-14.99a98.083,98.083,0,0,0,60.877,25.891,7,7,0,0,0,5.588,3.783,5.85,5.85,0,0,1,5.313,4.461,10.044,10.044,0,0,1-8,12.272,7,7,0,0,0-5.793,6.895v.1a67.6,67.6,0,0,1-17.425,44.755c-11.342,12.536-26.169,19.44-41.75,19.44H374.729c-15.581,0-30.408-6.9-41.75-19.44a67.594,67.594,0,0,1-17.424-44.755v-.1a7,7,0,0,0-5.793-6.895,10.046,10.046,0,0,1-8-12.274Zm5.568,48.809A81.877,81.877,0,0,0,322.6,318.4a75.045,75.045,0,0,0,21.555,16.642v11.195l-5.684,1.927c-2.644-.029-5.283-.12-7.844-.22l-.652-.026-.786-14.706a7,7,0,0,0-12.073-4.44L299.276,347.6c-2.281-.278-4.305-.57-6.039-.847Zm8.742,56.436.261,4.879c.01.183.032.362.056.541l-8.028,2.72ZM176.136,139.535c8.726,9.229,35.487,33.053,82.848,38v2.853c-18.65-.49-72.384-4.621-115.374-34.695A281.788,281.788,0,0,0,176.136,139.535Zm-99.671-2.317a91.26,91.26,0,1,1,182.519,0V163.44c-34.342-3.981-56.516-19.069-67.279-28.45,16.068-5.342,31.778-12.75,45.16-23.013a7,7,0,0,0-8.519-11.109c-48.88,37.488-136.18,33.532-137.052,33.489a7,7,0,0,0-7.352,6.673l-1.625,35.678a6.069,6.069,0,0,1-3.224,5.143,6.412,6.412,0,0,1-2.628.752Zm8.131,110.7q-.063-.334-.158-.662l-4.916-16.9a7,7,0,0,0-5.688-5.686A17.722,17.722,0,0,1,59.72,203.007a11.294,11.294,0,0,1,7.874-8.33A20.158,20.158,0,0,0,96.3,177.345l1.312-28.82c5.809.059,14.821-.042,25.759-.8,57.655,49.366,139.38,46.827,142.878,46.691.14,0,.276-.023.414-.036a11.408,11.408,0,0,1,9.021,8.63,17.723,17.723,0,0,1-14.114,21.658,7,7,0,0,0-5.688,5.686l-4.915,16.9q-.1.327-.159.662a84.564,84.564,0,0,1-166.216,0ZM167.7,330.854a98.2,98.2,0,0,0,36.7-7.109v24.418a85.8,85.8,0,0,1-73.408,0V323.745A98.2,98.2,0,0,0,167.7,330.854Zm144.7,135.188H23V423.707a41.225,41.225,0,0,1,.991-9.43c.133-.566.276-1.128.427-1.681,3.886-14.148,14.872-25.4,29.389-30.111l69.474-22.526a99.742,99.742,0,0,0,88.847,0L281.6,382.485A44.208,44.208,0,0,1,310.991,412.6c.153.552.294,1.107.425,1.67a41.158,41.158,0,0,1,.992,9.436Zm12.642-54.951c-.173-.74-.36-1.477-.56-2.2a57.364,57.364,0,0,0-24.351-32.952l21.756-7.373,52.292,50.849v23.5H326.408V423.707A54.923,54.923,0,0,0,325.05,411.091ZM489,442.915H388.187V419.553l52.436-50.991,28.783,9.756A28.843,28.843,0,0,1,489,405.647Z" fill="#FFFFFF"/></svg>
